<svg width="8" height="7" viewBox="0 0 8 7" fill="none" xmlns="http://www.w3.org/2000/svg">
<path d="M7.69238 0.0969585C7.61804 0.0539402 7.53493 0.024402 7.44778 0.0100315C7.36063 -0.00433895 7.27117 -0.00326025 7.18449 0.013206C7.09781 0.0296723 7.01562 0.0612035 6.94261 0.105998C6.8696 0.150793 6.80721 0.207974 6.75899 0.274274L2.97728 5.47159L1.13299 3.95117C1.06792 3.89752 0.991639 3.85583 0.908499 3.82847C0.825359 3.80112 0.736989 3.78863 0.648436 3.79172C0.469594 3.79796 0.300858 3.86729 0.17935 3.98446C0.057842 4.10163 -0.00648609 4.25704 0.0005174 4.4165C0.00752089 4.57595 0.0852823 4.7264 0.216695 4.83474L2.63825 6.83094C2.63825 6.83094 2.70777 6.8843 2.73994 6.90295C2.81428 6.946 2.89742 6.97556 2.98459 6.98995C3.07176 7.00434 3.16125 7.00327 3.24796 6.9868C3.33466 6.97033 3.41688 6.93879 3.48991 6.89398C3.56293 6.84917 3.62534 6.79196 3.67355 6.72563L7.89125 0.929179C7.9395 0.862897 7.97263 0.788789 7.98875 0.711088C8.00487 0.633388 8.00366 0.553618 7.98519 0.476334C7.96672 0.399051 7.93136 0.325769 7.88112 0.260674C7.83087 0.19558 7.76674 0.139949 7.69238 0.0969585Z" fill="#63A2C5"/>
</svg>
